<svg width="100" height="50" viewBox="0 0 100 50" fill="none" xmlns="http://www.w3.org/2000/svg">
<path d="M29.7329 9.96118H29.3328V13.73H29.7329V9.96118Z" stroke="#222222" stroke-width="1.17786"/>
<path d="M29.7329 37.6467H29.3328V41.4156H29.7329V37.6467Z" stroke="#222222" stroke-width="1.17786"/>
<path d="M32.8016 16.6294H13.8239V35.0381H32.8016V16.6294Z" stroke="#222222" stroke-width="1.47232"/>
<path d="M87.1758 32.0515H37.4871V43.6476H87.1758V32.0515Z" stroke="#222222" stroke-width="1.47232"/>
<path d="M32.8016 1.88037H13.8239V16.6294H32.8016V1.88037Z" stroke="#222222" stroke-width="1.47232"/>
<path d="M32.8016 35.0378H13.8239V48.1196H32.8016V35.0378Z" stroke="#222222" stroke-width="1.47232"/>
<path d="M42.3395 44.0813H41.9395V47.8501H42.3395V44.0813Z" stroke="#222222" stroke-width="1.17786"/>
<path d="M82.3664 44.0813H81.9663V47.8501H82.3664V44.0813Z" stroke="#222222" stroke-width="1.17786"/>
<path d="M82.8387 17.2664H41.8243V32.0515H82.8387V17.2664Z" stroke="#222222" stroke-width="1.47232"/>
<path d="M59.1579 24.6589H46.052V32.0514H59.1579V24.6589Z" stroke="#222222" stroke-width="1.47232"/>
<path d="M78.3445 24.6589H65.2386V32.0514H78.3445V24.6589Z" stroke="#222222" stroke-width="1.47232"/>
</svg>
