<svg width="100" height="50" viewBox="0 0 100 50" fill="none" xmlns="http://www.w3.org/2000/svg">
<path d="M27.7107 37.6855H27.312V41.4613H27.7107V37.6855Z" stroke="#222222" stroke-width="1.17984"/>
<path d="M30.7719 18.4666H11.8486V26.7693H30.7719V18.4666Z" stroke="#222222" stroke-width="1.4748"/>
<path d="M30.7719 35.0735H11.8486V48.1766H30.7719V35.0735Z" stroke="#222222" stroke-width="1.4748"/>
<path d="M85.1062 23.1121H84.7075V26.8879H85.1062V23.1121Z" stroke="#222222" stroke-width="1.17984"/>
<path d="M88.1514 1.82349H59.4609V48.1765H88.1514V1.82349Z" stroke="#222222" stroke-width="1.4748"/>
<path d="M59.461 1.82349H30.7705V48.1765H59.461V1.82349Z" stroke="#222222" stroke-width="1.4748"/>
<path d="M34.3965 23.1121H33.9978V26.8879H34.3965V23.1121Z" stroke="#222222" stroke-width="1.17984"/>
<path d="M30.7719 10.1638H11.8486V18.4665H30.7719V10.1638Z" stroke="#222222" stroke-width="1.4748"/>
<path d="M30.7719 1.86035H11.8486V10.1645H30.7719V1.86035Z" stroke="#222222" stroke-width="1.4748"/>
<path d="M30.7719 26.7693H11.8486V35.072H30.7719V26.7693Z" stroke="#222222" stroke-width="1.4748"/>
</svg>
