<svg width="100" height="50" viewBox="0 0 100 50" fill="none" xmlns="http://www.w3.org/2000/svg">
<path d="M46.4777 37.5289H46.0835V41.2572H46.4777V37.5289Z" stroke="#222222" stroke-width="1.16523"/>
<path d="M49.4996 18.9414H30.8113V34.9483H49.4996V18.9414Z" stroke="#222222" stroke-width="1.45654"/>
<path d="M68.1881 2.11009H49.4998V47.8899H68.1881V2.11009Z" stroke="#222222" stroke-width="1.45654"/>
<path d="M49.4996 2.14688H30.8113V18.9426H49.4996V2.14688Z" stroke="#222222" stroke-width="1.45654"/>
<path d="M49.4996 34.9483H30.8113V47.8899H49.4996V34.9483Z" stroke="#222222" stroke-width="1.45654"/>
<path d="M52.7289 23.1356H52.3347V26.8639H52.7289V23.1356Z" stroke="#222222" stroke-width="1.16523"/>
<path d="M44.482 4.55545L44.2034 4.83456L46.8351 7.47099L47.1137 7.19187L44.482 4.55545Z" stroke="#222222" stroke-width="0.316824"/>
<path d="M39.9456 5.0533L39.667 5.33241L45.3354 11.0109L45.614 10.7318L39.9456 5.0533Z" stroke="#222222" stroke-width="0.464973"/>
<path d="M44.482 21.6164L44.2034 21.8955L46.8351 24.5319L47.1137 24.2528L44.482 21.6164Z" stroke="#222222" stroke-width="0.316824"/>
<path d="M39.9456 22.1142L39.667 22.3933L45.3354 28.0719L45.614 27.7927L39.9456 22.1142Z" stroke="#222222" stroke-width="0.464973"/>
</svg>
