<svg width="100" height="50" viewBox="0 0 100 50" fill="none" xmlns="http://www.w3.org/2000/svg">
<path d="M70.03 49H30.5C30.3993 49.0013 30.2994 48.9826 30.2061 48.945C30.1127 48.9074 30.0277 48.8517 29.9561 48.781C29.8845 48.7103 29.8276 48.626 29.7888 48.5332C29.75 48.4403 29.73 48.3406 29.73 48.24V1.76001C29.73 1.34001 30.08 1 30.5 1H70.03C70.46 1 70.8 1.34001 70.8 1.76001V48.24C70.8 48.66 70.46 49 70.03 49ZM49.51 2.5H31.24V47.5H49.51V2.5ZM69.3 2.5H51.02V47.5H69.3V2.5ZM55.15 22.5C55.56 22.5 55.9 22.84 55.9 23.25V26.25C55.9 26.4489 55.821 26.6397 55.6803 26.7803C55.5397 26.921 55.3489 27 55.15 27C54.9511 27 54.7603 26.921 54.6197 26.7803C54.479 26.6397 54.4 26.4489 54.4 26.25V23.25C54.4 22.84 54.73 22.5 55.15 22.5ZM45.38 22.5C45.8 22.5 46.14 22.84 46.14 23.25V26.25C46.14 26.4489 46.061 26.6397 45.9203 26.7803C45.7797 26.921 45.5889 27 45.39 27C45.1911 27 45.0003 26.921 44.8596 26.7803C44.719 26.6397 44.64 26.4489 44.64 26.25V23.25C44.64 22.84 44.97 22.5 45.38 22.5Z" fill="#222222"/>
</svg>
