<svg width="100" height="50" viewBox="0 0 100 50" fill="none" xmlns="http://www.w3.org/2000/svg">
<path d="M46.4782 37.5288H46.0845V41.2577H46.4782V37.5288Z" stroke="#222222" stroke-width="1.16525"/>
<path d="M49.5012 18.9417H30.8113V34.9496H49.5012V18.9417Z" stroke="#222222" stroke-width="1.45657"/>
<path d="M68.1912 2.10913H49.5012V47.8885H68.1912V2.10913Z" stroke="#222222" stroke-width="1.45657"/>
<path d="M49.5012 2.14429H30.8113V18.9411H49.5012V2.14429Z" stroke="#222222" stroke-width="1.45657"/>
<path d="M49.5012 34.9473H30.8113V47.8885H49.5012V34.9473Z" stroke="#222222" stroke-width="1.45657"/>
<path d="M52.7296 23.1343H52.3359V26.8632H52.7296V23.1343Z" stroke="#222222" stroke-width="1.16525"/>
<path d="M47.1709 8.57067L46.7903 8.46851L44.7156 16.2253L45.0961 16.3275L47.1709 8.57067Z" stroke="#222222" stroke-width="0.464983"/>
<path d="M44.1091 8.57067L43.7285 8.46851L41.6538 16.2253L42.0344 16.3275L44.1091 8.57067Z" stroke="#222222" stroke-width="0.464983"/>
<path d="M40.4228 10.0317L40.1072 9.79541L35.3084 16.2279L35.624 16.4642L40.4228 10.0317Z" stroke="#222222" stroke-width="0.464982"/>
<path d="M47.1709 24.6481L46.7903 24.5459L44.7156 32.3027L45.0961 32.4049L47.1709 24.6481Z" stroke="#222222" stroke-width="0.464983"/>
<path d="M44.1091 24.6481L43.7285 24.5459L41.6538 32.3027L42.0344 32.4049L44.1091 24.6481Z" stroke="#222222" stroke-width="0.464983"/>
<path d="M40.4228 26.1091L40.1072 25.8728L35.3084 32.3053L35.624 32.5416L40.4228 26.1091Z" stroke="#222222" stroke-width="0.464982"/>
</svg>
