<svg width="36" height="49" viewBox="0 0 36 49" fill="none" xmlns="http://www.w3.org/2000/svg">
<path d="M35.2711 0.814026H0.728941V48.1871H35.2711V0.814026Z" stroke="#2B2A29" stroke-width="1.45708"/>
<path d="M9.13831 7.12792L8.53838 7.72784L11.8851 11.0745L12.485 10.4746L9.13831 7.12792Z" stroke="#2B2A29" stroke-width="0.584059"/>
<path d="M8.53724 10.474L9.13716 11.0739L12.4838 7.72721L11.8839 7.12729L8.53724 10.474Z" stroke="#2B2A29" stroke-width="0.584059"/>
<path d="M24.1153 7.12792L23.5154 7.72784L26.8621 11.0745L27.462 10.4746L24.1153 7.12792Z" stroke="#2B2A29" stroke-width="0.584059"/>
<path d="M23.5142 10.474L24.1142 11.0739L27.4608 7.72721L26.8609 7.12729L23.5142 10.474Z" stroke="#2B2A29" stroke-width="0.584059"/>
<path d="M9.13831 21.9977L8.53838 22.5976L11.8851 25.9443L12.485 25.3444L9.13831 21.9977Z" stroke="#2B2A29" stroke-width="0.584059"/>
<path d="M8.53724 25.3437L9.13716 25.9436L12.4838 22.597L11.8839 21.9971L8.53724 25.3437Z" stroke="#2B2A29" stroke-width="0.584059"/>
<path d="M24.1153 21.9977L23.5154 22.5976L26.8621 25.9443L27.462 25.3444L24.1153 21.9977Z" stroke="#2B2A29" stroke-width="0.584059"/>
<path d="M23.5142 25.3437L24.1142 25.9436L27.4608 22.597L26.8609 21.9971L23.5142 25.3437Z" stroke="#2B2A29" stroke-width="0.584059"/>
<path d="M9.13831 36.8675L8.53838 37.4674L11.8851 40.8141L12.485 40.2142L9.13831 36.8675Z" stroke="#2B2A29" stroke-width="0.584059"/>
<path d="M8.53724 40.2135L9.13716 40.8134L12.4838 37.4668L11.8839 36.8669L8.53724 40.2135Z" stroke="#2B2A29" stroke-width="0.584059"/>
<path d="M24.1153 36.8675L23.5154 37.4674L26.8621 40.8141L27.462 40.2142L24.1153 36.8675Z" stroke="#2B2A29" stroke-width="0.584059"/>
<path d="M23.5142 40.2135L24.1142 40.8134L27.4608 37.4668L26.8609 36.8669L23.5142 40.2135Z" stroke="#2B2A29" stroke-width="0.584059"/>
</svg>
