<svg width="100" height="50" viewBox="0 0 100 50" fill="none" xmlns="http://www.w3.org/2000/svg">
<path d="M72.5 49H28.28C28.0785 49 27.8851 48.9199 27.7426 48.7774C27.6001 48.6349 27.52 48.4416 27.52 48.24V1.76001C27.52 1.34001 27.86 1 28.28 1H72.5C72.92 1 73.26 1.34001 73.26 1.76001V48.24C73.26 48.66 72.92 49 72.5 49ZM71.77 2.5H29.02V11.73H71.77V2.5ZM29.02 13.23V47.5H71.77V23.97H29.02V22.47H71.77V13.23H29.02ZM51.64 18.6H48.64C48.4411 18.6 48.2503 18.521 48.1097 18.3803C47.969 18.2397 47.89 18.0489 47.89 17.85C47.89 17.6511 47.969 17.4603 48.1097 17.3197C48.2503 17.179 48.4411 17.1 48.64 17.1H51.64C51.8389 17.1 52.0297 17.179 52.1703 17.3197C52.311 17.4603 52.39 17.6511 52.39 17.85C52.39 18.0489 52.311 18.2397 52.1703 18.3803C52.0297 18.521 51.8389 18.6 51.64 18.6ZM48.64 27.84H51.64C51.8389 27.84 52.0297 27.919 52.1703 28.0597C52.311 28.2003 52.39 28.3911 52.39 28.59C52.39 28.7889 52.311 28.9797 52.1703 29.1203C52.0297 29.261 51.8389 29.34 51.64 29.34H48.64C48.4411 29.34 48.2503 29.261 48.1097 29.1203C47.969 28.9797 47.89 28.7889 47.89 28.59C47.89 28.3911 47.969 28.2003 48.1097 28.0597C48.2503 27.919 48.4411 27.84 48.64 27.84ZM48.64 6.37H51.64C51.8389 6.37 52.0297 6.44901 52.1703 6.58966C52.311 6.73031 52.39 6.92108 52.39 7.12C52.39 7.31891 52.311 7.50968 52.1703 7.65033C52.0297 7.79098 51.8389 7.87 51.64 7.87H48.64C48.4411 7.87 48.2503 7.79098 48.1097 7.65033C47.969 7.50968 47.89 7.31891 47.89 7.12C47.89 6.92108 47.969 6.73031 48.1097 6.58966C48.2503 6.44901 48.4411 6.37 48.64 6.37Z" fill="#222222"/>
</svg>
