<svg width="100" height="50" viewBox="0 0 100 50" fill="none" xmlns="http://www.w3.org/2000/svg">
<path d="M70.64 48.25C70.64 48.4489 70.561 48.6397 70.4203 48.7803C70.2797 48.921 70.0889 49 69.89 49C69.6911 49 69.5003 48.921 69.3597 48.7803C69.219 48.6397 69.14 48.4489 69.14 48.25V41.5H30.14V48.25C30.14 48.4489 30.061 48.6397 29.9203 48.7803C29.7797 48.921 29.5889 49 29.39 49C29.1911 49 29.0003 48.921 28.8597 48.7803C28.719 48.6397 28.64 48.4489 28.64 48.25V40.75V1.76001C28.64 1.34001 28.98 1 29.4 1H69.88C70.3 1 70.64 1.34001 70.64 1.76001V40.75V48.25ZM69.14 2.5H30.14V15.48H69.14V2.5ZM69.14 16.98H30.14V40H69.14V16.98ZM47.89 22.73H50.89C51.0889 22.73 51.2797 22.809 51.4203 22.9497C51.561 23.0903 51.64 23.2811 51.64 23.48C51.64 23.6789 51.561 23.8697 51.4203 24.0103C51.2797 24.151 51.0889 24.23 50.89 24.23H47.89C47.6911 24.23 47.5003 24.151 47.3597 24.0103C47.219 23.8697 47.14 23.6789 47.14 23.48C47.14 23.2811 47.219 23.0903 47.3597 22.9497C47.5003 22.809 47.6911 22.73 47.89 22.73ZM47.89 8.23999H50.89C51.0889 8.23999 51.2797 8.319 51.4203 8.45966C51.561 8.60031 51.64 8.79108 51.64 8.98999C51.64 9.1889 51.561 9.37967 51.4203 9.52032C51.2797 9.66098 51.0889 9.73999 50.89 9.73999H47.89C47.6911 9.73999 47.5003 9.66098 47.3597 9.52032C47.219 9.37967 47.14 9.1889 47.14 8.98999C47.14 8.79108 47.219 8.60031 47.3597 8.45966C47.5003 8.319 47.6911 8.23999 47.89 8.23999Z" fill="#222222"/>
</svg>
