<svg width="100" height="50" viewBox="0 0 100 50" fill="none" xmlns="http://www.w3.org/2000/svg">
<path d="M31.0571 24.4419H12.1143V36.7209H31.0571V24.4419Z" stroke="#7ab131" stroke-width="1.47481"/>
<path d="M31.0571 13.2791H12.1143V24.4419H31.0571V13.2791Z" stroke="#7ab131" stroke-width="1.47481"/>
<path d="M31.0571 2.11629H12.1143V13.2791H31.0571V2.11629Z" stroke="#7ab131" stroke-width="1.47481"/>
<path d="M65.6 34.4884H34.4V47.8837H65.6V34.4884Z" stroke="#7ab131" stroke-width="1.47481"/>
<path d="M88.1532 1.82338H69.2297V48.1766H88.1532V1.82338Z" stroke="#7ab131" stroke-width="1.47481"/>
<path d="M31.0571 36.7209H12.1143V47.8837H31.0571V36.7209Z" stroke="#7ab131" stroke-width="1.47481"/>
<path d="M48.1724 37.8372L48.1724 38.237L51.9408 38.237L51.9408 37.8372L48.1724 37.8372Z" stroke="#7ab131" stroke-width="1.47"/>
<path d="M72.4995 23.112H72.1001V26.8867H72.4995V23.112Z" stroke="#7ab131" stroke-width="1.17984"/>
<path d="M64.0131 12.1628H36.4479V28.5136H64.0131V12.1628Z" stroke="#7ab131" stroke-width="1.47481"/>
<path d="M58.9021 14.6874L58.6199 14.9701L61.2845 17.6395L61.5667 17.3568L58.9021 14.6874Z" stroke="#7ab131" stroke-width="0.320796"/>
<path d="M54.3088 15.1914L54.0266 15.4742L59.766 21.2238L60.0482 20.9411L54.3088 15.1914Z" stroke="#7ab131" stroke-width="0.470802"/>
</svg>
