<svg width="100" height="50" viewBox="0 0 100 50" fill="none" xmlns="http://www.w3.org/2000/svg">
<path d="M70.3901 17.5V48.25C70.3901 48.4489 70.3111 48.6397 70.1705 48.7803C70.0298 48.921 69.8391 49 69.6401 49C69.4412 49 69.2505 48.921 69.1098 48.7803C68.9692 48.6397 68.8901 48.4489 68.8901 48.25V41.5H29.8901V48.25C29.8901 48.4489 29.8111 48.6397 29.6705 48.7803C29.5298 48.921 29.339 49 29.1401 49C28.9412 49 28.7505 48.921 28.6098 48.7803C28.4691 48.6397 28.3901 48.4489 28.3901 48.25V40.75V40.74V4C28.3901 3.20435 28.7062 2.4413 29.2688 1.87869C29.8314 1.31608 30.5945 1 31.3901 1H67.3901C68.1858 1 68.9488 1.31608 69.5114 1.87869C70.074 2.4413 70.3901 3.20435 70.3901 4V17.5ZM29.8901 40H68.8901V17.5H29.8901V40ZM68.8901 4C68.8901 3.17 68.2201 2.5 67.3901 2.5H31.3901C30.5601 2.5 29.8901 3.17 29.8901 4V16H68.8901V4Z" fill="#7ab131"/>
</svg>
