<svg width="100" height="50" viewBox="0 0 100 50" fill="none" xmlns="http://www.w3.org/2000/svg">
<path fill-rule="evenodd" clip-rule="evenodd" d="M34.9653 1.71606C39.9894 1.71606 44.9676 3.80815 49.9958 3.80815C54.9907 3.80815 59.9482 1.76228 64.9431 1.76228C64.9431 7.30336 63.2588 12.9873 63.2588 18.5284C63.2588 23.3721 64.9431 28.073 64.9431 32.9167L34.9653 32.8705C34.9653 27.7495 37.6645 22.868 37.6645 17.747C37.6645 12.4832 34.9653 6.97988 34.9653 1.71606Z" stroke="#7ab131" stroke-width="1.4571"/>
<path d="M75.9103 32.7319H24.0938V48.2839H75.9103V32.7319Z" stroke="#7ab131" stroke-width="1.4571"/>
<path d="M59.7776 12.4832H59.2452V23.3889H59.7776V12.4832Z" stroke="#7ab131" stroke-width="1.16568"/>
<path d="M55.8267 15.512H55.2943V20.5741H55.8267V15.512Z" stroke="#7ab131" stroke-width="1.16568"/>
<path d="M29.301 40.2415L29.301 40.7776L70.7023 40.7776L70.7023 40.2415L29.301 40.2415Z" stroke="#7ab131" stroke-width="0.910888"/>
</svg>
