<svg width="100" height="50" viewBox="0 0 100 50" fill="none" xmlns="http://www.w3.org/2000/svg">
<path d="M28.7329 9.96118H28.3328V13.73H28.7329V9.96118Z" stroke="#7ab131" stroke-width="1.17786"/>
<path d="M28.7329 37.6467H28.3328V41.4156H28.7329V37.6467Z" stroke="#7ab131" stroke-width="1.17786"/>
<path d="M31.8016 16.6294H12.8239V35.0381H31.8016V16.6294Z" stroke="#7ab131" stroke-width="1.47232"/>
<path d="M86.1758 32.0515H36.4871V43.6476H86.1758V32.0515Z" stroke="#7ab131" stroke-width="1.47232"/>
<path d="M31.8016 1.88037H12.8239V16.6294H31.8016V1.88037Z" stroke="#7ab131" stroke-width="1.47232"/>
<path d="M31.8016 35.038H12.8239V48.1197H31.8016V35.038Z" stroke="#7ab131" stroke-width="1.47232"/>
<path d="M41.3395 44.0814H40.9395V47.8503H41.3395V44.0814Z" stroke="#7ab131" stroke-width="1.17786"/>
<path d="M81.3664 44.0814H80.9663V47.8503H81.3664V44.0814Z" stroke="#7ab131" stroke-width="1.17786"/>
<path d="M81.8387 17.2664H40.8243V32.0515H81.8387V17.2664Z" stroke="#7ab131" stroke-width="1.47232"/>
<path d="M58.1579 24.6588H45.052V32.0513H58.1579V24.6588Z" stroke="#7ab131" stroke-width="1.47232"/>
<path d="M77.3445 24.6588H64.2386V32.0513H77.3445V24.6588Z" stroke="#7ab131" stroke-width="1.47232"/>
</svg>
