<svg width="100" height="50" viewBox="0 0 100 50" fill="none" xmlns="http://www.w3.org/2000/svg">
<path d="M41.3301 48.24V1.76001C41.3301 1.34001 41.6701 1 42.0801 1H56.7001C57.1101 1 57.4501 1.34001 57.4501 1.76001V48.24C57.4501 48.66 57.1101 49 56.7001 49H42.0801C41.8803 48.9974 41.6895 48.9161 41.5491 48.7739C41.4088 48.6317 41.3301 48.4398 41.3301 48.24ZM42.8201 10.55H55.9601V2.5H42.8201V10.55ZM42.8201 19.79H55.9601V12.05H42.8201V19.79ZM42.8201 29.03H55.9601V21.29H42.8201V29.03ZM42.8201 38.27H55.9601V30.53H42.8201V38.27ZM42.8201 47.5H55.9601V39.76H42.8201V47.5Z" fill="#7ab131"/>
</svg>
