<svg width="100" height="50" viewBox="0 0 100 50" fill="none" xmlns="http://www.w3.org/2000/svg">
<path d="M27.7111 9.95439H27.3116V13.7291H27.7111V9.95439Z" stroke="#7ab131" stroke-width="1.17984"/>
<path d="M27.7111 37.686H27.3116V41.4608H27.7111V37.686Z" stroke="#7ab131" stroke-width="1.17984"/>
<path d="M30.7714 16.6329H11.8479V35.0731H30.7714V16.6329Z" stroke="#7ab131" stroke-width="1.47481"/>
<path d="M69.2297 40.245H30.8844V48.1766H69.2297V40.245Z" stroke="#7ab131" stroke-width="1.47481"/>
<path d="M69.2297 32.3134H30.8844V40.245H69.2297V32.3134Z" stroke="#7ab131" stroke-width="1.47481"/>
<path d="M88.1532 1.82338H69.2297V48.1766H88.1532V1.82338Z" stroke="#7ab131" stroke-width="1.47481"/>
<path d="M30.7714 1.85866H11.8479V16.6321H30.7714V1.85866Z" stroke="#7ab131" stroke-width="1.47481"/>
<path d="M30.7714 35.0731H11.8479V48.1766H30.7714V35.0731Z" stroke="#7ab131" stroke-width="1.47481"/>
<path d="M48.1722 36.0791L48.1722 36.4789L51.9407 36.4789L51.9407 36.0791L48.1722 36.0791Z" stroke="#7ab131" stroke-width="0.320796"/>
<path d="M48.1722 44.2105L48.1722 44.6103L51.9407 44.6103L51.9407 44.2105L48.1722 44.2105Z" stroke="#7ab131" stroke-width="0.320796"/>
<path d="M72.4994 23.112H72.1V26.8867H72.4994V23.112Z" stroke="#7ab131" stroke-width="1.17984"/>
<path d="M64.013 9.22878H36.4478V25.5796H64.013V9.22878Z" stroke="#7ab131" stroke-width="1.47481"/>
<path d="M58.9021 11.7534L58.6199 12.0361L61.2845 14.7055L61.5667 14.4228L58.9021 11.7534Z" stroke="#7ab131" stroke-width="0.320796"/>
<path d="M54.3088 12.2574L54.0266 12.5401L59.766 18.2898L60.0482 18.0071L54.3088 12.2574Z" stroke="#7ab131" stroke-width="0.470802"/>
</svg>
