<svg width="100" height="50" viewBox="0 0 100 50" fill="none" xmlns="http://www.w3.org/2000/svg">
<path d="M68.0244 28.0491H31.9756V35.4076H68.0244V28.0491Z" stroke="#7ab131" stroke-width="1.46365"/>
<path d="M59.0317 31.5424L59.0317 31.9133L62.5748 31.9133L62.5748 31.5424L59.0317 31.5424Z" stroke="#7ab131" stroke-width="0.31837"/>
<path d="M56.2637 39.9978H55.8888V43.5001H56.2637V39.9978Z" stroke="#7ab131" stroke-width="1.17092"/>
<path d="M57.9039 12.552H42.0999V24.4543H57.9039V12.552Z" stroke="#7ab131" stroke-width="1.46365"/>
<path d="M53.0991 14.8945L52.8337 15.1567L55.3391 17.6334L55.6044 17.3711L53.0991 14.8945Z" stroke="#7ab131" stroke-width="0.31837"/>
<path d="M48.7808 15.362L48.5155 15.6243L53.9116 20.9587L54.177 20.6964L48.7808 15.362Z" stroke="#7ab131" stroke-width="0.467242"/>
<path d="M68.0262 35.4077H53.5812V48.1123H68.0262V35.4077Z" stroke="#7ab131" stroke-width="1.46365"/>
<path d="M68.0262 28.0491H53.5812V35.4076H68.0262V28.0491Z" stroke="#7ab131" stroke-width="1.46365"/>
<path d="M32.193 35.4077H31.8181V48.3903H32.193V35.4077Z" stroke="#7ab131" stroke-width="1.17092"/>
<path d="M32.193 9.12207H31.8181V28.1401H32.193V9.12207Z" stroke="#7ab131" stroke-width="1.17092"/>
<path d="M49.806 1.76343H31.9756V9.12196H49.806V1.76343Z" stroke="#7ab131" stroke-width="1.46365"/>
<path d="M68.1818 9.12207H67.8069V28.1401H68.1818V9.12207Z" stroke="#7ab131" stroke-width="1.17092"/>
<path d="M57.145 5.31365L57.145 5.68457L60.6881 5.68457L60.6881 5.31365L57.145 5.31365Z" stroke="#7ab131" stroke-width="0.31837"/>
<path d="M68.0262 1.76343H49.8059V9.12196H68.0262V1.76343Z" stroke="#7ab131" stroke-width="1.46365"/>
<path d="M39.1202 5.25726L39.1202 5.62817L42.6633 5.62817L42.6633 5.25726L39.1202 5.25726Z" stroke="#7ab131" stroke-width="0.31837"/>
</svg>
