<svg width="100" height="50" viewBox="0 0 100 50" fill="none" xmlns="http://www.w3.org/2000/svg">
<path d="M73.9522 27.9388H25.054V38.2738H73.9522V27.9388Z" stroke="#7ab131" stroke-width="1.47926"/>
<path d="M61.7522 32.8457L61.7522 33.3666L66.5579 33.3666L66.5579 32.8457L61.7522 32.8457Z" stroke="#7ab131" stroke-width="0.321765"/>
<path d="M61.7522 43.4408L61.7522 43.9617L66.5579 43.9617L66.5579 43.4408L61.7522 43.4408Z" stroke="#7ab131" stroke-width="0.321765"/>
<path d="M60.2208 2H38.7839V23.3056H60.2208V2Z" stroke="#7ab131" stroke-width="1.47926"/>
<path d="M53.7045 5.29027L53.3447 5.65857L56.7429 9.13691L57.1027 8.76861L53.7045 5.29027Z" stroke="#7ab131" stroke-width="0.321765"/>
<path d="M47.8474 5.94713L47.4875 6.31543L54.8068 13.8073L55.1666 13.439L47.8474 5.94713Z" stroke="#7ab131" stroke-width="0.472225"/>
<path d="M73.9521 38.2738H54.3584V48.6088H73.9521V38.2738Z" stroke="#7ab131" stroke-width="1.47926"/>
<path d="M73.9521 27.9388H54.3584V38.2738H73.9521V27.9388Z" stroke="#7ab131" stroke-width="1.47926"/>
<path d="M25.3471 38.4598H24.8386V49H25.3471V38.4598Z" stroke="#7ab131" stroke-width="1.18341"/>
</svg>
