<svg width="100" height="50" viewBox="0 0 100 50" fill="none" xmlns="http://www.w3.org/2000/svg">
<path d="M72.7113 38.6485H27.2887V48.0267H72.7113V38.6485Z" stroke="#7ab131" stroke-width="1.45997"/>
<path d="M72.7113 29.2703H27.2887V38.6485H72.7113V29.2703Z" stroke="#7ab131" stroke-width="1.45997"/>
<path d="M47.7672 33.723L47.7672 34.1954L52.231 34.1954L52.231 33.723L47.7672 33.723Z" stroke="#7ab131" stroke-width="0.317569"/>
<path d="M47.7672 43.3376L47.7672 43.81L52.231 43.81L52.231 43.3376L47.7672 43.3376Z" stroke="#7ab131" stroke-width="0.317569"/>
<path d="M66.3262 1.97333H33.6738V21.3083H66.3262V1.97333Z" stroke="#7ab131" stroke-width="1.45997"/>
<path d="M60.2718 4.9594L59.9377 5.29346L63.0941 8.44984L63.4282 8.11578L60.2718 4.9594Z" stroke="#7ab131" stroke-width="0.317569"/>
<path d="M54.831 5.55544L54.4969 5.8895L61.2954 12.6879L61.6294 12.3539L54.831 5.55544Z" stroke="#7ab131" stroke-width="0.466067"/>
</svg>
