<svg width="100" height="50" viewBox="0 0 100 50" fill="none" xmlns="http://www.w3.org/2000/svg">
<path d="M82.4001 49H16.4001C16.3008 49.0013 16.2022 48.9829 16.11 48.9458C16.0179 48.9087 15.934 48.8537 15.8633 48.7839C15.7926 48.7141 15.7365 48.631 15.6982 48.5393C15.6599 48.4477 15.6401 48.3493 15.6401 48.25V1.75C15.6401 1.34 15.9801 1 16.3901 1H82.3901C82.8001 1 83.1401 1.34 83.1401 1.75V48.25C83.1401 48.66 82.8001 49 82.3901 49H82.4001ZM81.6401 2.87C81.6401 2.67 81.4701 2.5 81.2701 2.5H17.5201C17.3101 2.5 17.1401 2.67 17.1401 2.87V47.12C17.1401 47.33 17.3101 47.5 17.5201 47.5H81.2701C81.4701 47.5 81.6401 47.33 81.6401 47.12V2.87ZM46.0401 17.43C45.9406 17.6024 45.7768 17.7282 45.5846 17.7798C45.3924 17.8314 45.1875 17.8044 45.0151 17.705C44.8427 17.6055 44.7169 17.4417 44.6653 17.2495C44.6138 17.0572 44.6407 16.8524 44.7401 16.68L48.6801 9.73999C48.7294 9.65463 48.7949 9.57982 48.8731 9.51981C48.9513 9.45979 49.0405 9.41576 49.1357 9.39023C49.2309 9.36469 49.3302 9.35814 49.4279 9.37097C49.5256 9.3838 49.6198 9.41575 49.7051 9.465C49.7905 9.51424 49.8653 9.57983 49.9253 9.65799C49.9853 9.73615 50.0294 9.82535 50.0549 9.92053C50.0805 10.0157 50.087 10.115 50.0742 10.2127C50.0613 10.3104 50.0293 10.4046 49.9801 10.49L46.0401 17.43ZM30.4401 28.63C30.3959 28.7232 30.3329 28.8063 30.2551 28.8741C30.1772 28.9418 30.0863 28.9928 29.9879 29.0238C29.8894 29.0548 29.7856 29.0651 29.683 29.0542C29.5804 29.0432 29.4812 29.0112 29.3915 28.9602C29.3019 28.9091 29.2237 28.8401 29.1619 28.7575C29.1001 28.6749 29.0561 28.5804 29.0325 28.4799C29.0089 28.3795 29.0063 28.2752 29.0248 28.1737C29.0433 28.0722 29.0826 27.9757 29.1401 27.89L39.6401 9.70001C39.6894 9.61465 39.755 9.53981 39.8331 9.4798C39.9113 9.41978 40.0005 9.37576 40.0956 9.35022C40.1908 9.32468 40.2901 9.31813 40.3878 9.33096C40.4855 9.34379 40.5797 9.37574 40.6651 9.42499C40.7505 9.47423 40.8253 9.53982 40.8853 9.61798C40.9453 9.69614 40.9894 9.78537 41.0149 9.88055C41.0404 9.97573 41.047 10.075 41.0342 10.1727C41.0213 10.2704 40.9894 10.3647 40.9401 10.45L30.4401 28.63ZM25.3401 21.74C25.2909 21.8253 25.2253 21.9002 25.1472 21.9602C25.069 22.0202 24.9798 22.0642 24.8846 22.0898C24.7894 22.1153 24.6901 22.1219 24.5924 22.109C24.4947 22.0962 24.4005 22.0643 24.3151 22.015C24.2298 21.9658 24.1549 21.9002 24.0949 21.822C24.0349 21.7439 23.9909 21.6546 23.9653 21.5594C23.9398 21.4643 23.9333 21.365 23.9461 21.2673C23.9589 21.1696 23.9909 21.0753 24.0401 20.99L30.5601 9.69C30.61 9.60464 30.6762 9.52995 30.755 9.47018C30.8338 9.41042 30.9236 9.36675 31.0192 9.34167C31.1149 9.3166 31.2145 9.31063 31.3124 9.32407C31.4104 9.3375 31.5048 9.37011 31.5901 9.42001C31.6755 9.46992 31.7502 9.53613 31.8099 9.6149C31.8697 9.69367 31.9133 9.78345 31.9384 9.87909C31.9635 9.97473 31.9695 10.0744 31.9561 10.1723C31.9426 10.2703 31.91 10.3647 31.8601 10.45L25.3401 21.74Z" fill="#7ab131"/>
</svg>
