<svg xmlns="http://www.w3.org/2000/svg" width="223" height="42"><defs><clipPath id="a"><path fill="#fff" d="M356.58 413.12l-17.46 17.46c-.99.99-3.24 1.42-4.12 1.42H139a4 4 0 0 1-4-4v-34a4 4 0 0 1 4-4h196c.76 0 3.13.43 4.12 1.42l17.46 17.46a3 3 0 0 1 0 4.24z"/></clipPath></defs><path fill="#71a62a" d="M221.58 23.12l-17.46 17.46c-.99.99-3.24 1.42-4.12 1.42H4a4 4 0 0 1-4-4V4a4 4 0 0 1 4-4h196c.76 0 3.13.43 4.12 1.42l17.46 17.46a3 3 0 0 1 0 4.24z"/><path fill="none" stroke="#71a62a" stroke-miterlimit="50" stroke-width="4" d="M356.58 413.12l-17.46 17.46c-.99.99-3.24 1.42-4.12 1.42H139a4 4 0 0 1-4-4v-34a4 4 0 0 1 4-4h196c.76 0 3.13.43 4.12 1.42l17.46 17.46a3 3 0 0 1 0 4.24z" clip-path="url(&quot;#a&quot;)" transform="translate(-135 -390)"/></svg>