<svg xmlns="http://www.w3.org/2000/svg" width="241" height="27"><path fill="#7ab131" d="M26.01 26.99h-26v-26h26zM1.06 25.93h23.9V2.05H1.06zM17 22v-6h3v6zm-2.77-6.14c1.71 0 2.19 1.25 2.19 2.23V22h-2.3v-3.4c0-.48-.4-.86-.88-.86a.87.87 0 0 0-.87.86V22h-2.3v-3.4c0-.48-.4-.86-.89-.86a.87.87 0 0 0-.87.86V22H6v-5.94h2.3v.66a2.63 2.63 0 0 1 2-.87c.88 0 1.55.32 1.9.94.54-.65 1.1-.94 2.02-.94 0 0-1.7 0 0 0zm4.34-3.46c.8 0 1.44.63 1.44 1.4 0 .78-.64 1.41-1.44 1.41-.79 0-1.43-.63-1.43-1.4 0-.78.64-1.41 1.43-1.41.8 0 0 0 0 0zm-5.7.88c.79 0 1.42-.63 1.42-1.4 0-.79-.64-1.42-1.43-1.42-.8 0-1.43.63-1.43 1.41 0 .78.64 1.4 1.43 1.4 0 0-.8 0 0 0zm3.55-7.29v9h-2.21v-.65c-.43.53-1.14.87-2.07.87a3.23 3.23 0 0 1-3.07-3.35c0-1.59 1.24-3.32 3.13-3.32.84 0 1.43.19 1.92.67V5.99zm37.8-4.4c3 0 5.62.41 7.93 2.54 2.32 2.12 3.58 5.47 3.58 9.44 0 3.7-.78 7.4-3.4 10.08-2.02 2.05-4.06 2.75-7.87 2.75h-9.47V1.58zM49.2 22.73h5c5.7 0 7.26-3.87 7.26-8.96 0-5.09-2.21-8.5-7.53-8.5H49.2zm35.77 3.66V16.15h-4.84L73.26 26.4h-5.31l7.46-10.67c-4.3-1.36-5.25-4.14-5.25-7.28 0-4.11 2.86-6.87 8.04-6.87h11.04V26.4zm0-21.26h-6.34c-2.9 0-4.22 1.11-4.22 3.7 0 2.6 1.43 4 4.15 4h6.4zm28.07.2h-7.74V26.4h-4.25V5.35h-7.74V1.58h19.73zm4.19 21.06V1.58h4.25v9.48h6.48c5.31 0 8.27 2.76 8.27 7.64 0 4.91-3 7.7-8.27 7.7zm4.25-11.78v8.23h6.3c2.8 0 4.2-1.36 4.2-4.05 0-2.61-1.6-4.18-4.26-4.18zm30.39-3.14L162.2 26.4h-5.28l-7.97-11.89-3.47 3.56v8.33h-4.23V1.58h4.23v11.26L156.2 1.58h5.38zM187.41 14c0 7.74-4.73 13-11.65 13-6.95 0-11.65-5.26-11.65-13 0-7.28 4.3-13 11.72-13 6.85 0 11.58 5.3 11.58 13zm-19-.07c0 5.79 2.85 9.41 7.42 9.41 4.43 0 7.29-3.7 7.29-9.37 0-5.69-2.86-9.31-7.36-9.31-4.46 0-7.36 3.66-7.36 9.27 0 5.61 0 0 0 0zm35.25-12.34c5.25 0 7.87 2.55 7.87 6.24a5.6 5.6 0 0 1-3.48 5.23c2.76.7 4.57 2.82 4.57 6.03 0 4.4-3.14 7.32-7.67 7.32H192.6V1.58zm-6.92 10.35h5.8c3.16 0 4.76-.9 4.76-3.41 0-3.1-2.21-3.42-4.63-3.42h-5.93zm0 10.92h6.38c2.86 0 5.24-.7 5.24-3.87 0-3.42-2.55-3.9-5.31-3.9h-6.3zM240.01 14c0 7.74-4.74 13-11.65 13-6.95 0-11.65-5.26-11.65-13 0-7.28 4.29-13 11.71-13 6.85 0 11.59 5.3 11.59 13zM221 13.92c0 5.79 2.86 9.41 7.43 9.41 4.42 0 7.29-3.7 7.29-9.37 0-5.69-2.87-9.31-7.36-9.31-4.47 0-7.36 3.66-7.36 9.27 0 5.61 0 0 0 0z"/></svg>