<svg id="Layer_1" data-name="Layer 1" xmlns="http://www.w3.org/2000/svg" viewBox="0 0 139.19 18.14"><defs><style>.cls-1{fill:#fff;}</style></defs><path class="cls-1" d="M-6,48.47A7.78,7.78,0,0,1-.3,50.25a8.6,8.6,0,0,1,2.56,6.59,9.59,9.59,0,0,1-2.43,7c-1.44,1.44-2.9,1.92-5.62,1.92h-6.76V48.47ZM-9.53,63.23H-6c4.06,0,5.18-2.7,5.18-6.25s-1.58-5.93-5.38-5.93H-9.53Z" transform="translate(12.55 -48.06)"/><path class="cls-1" d="M16,65.78V58.63H12.54L7.63,65.78H3.84l5.32-7.44a4.72,4.72,0,0,1-3.74-5.08c0-2.87,2-4.79,5.74-4.79H19V65.78ZM16,51H11.47c-2.07,0-3,.78-3,2.58s1,2.79,3,2.79H16Z" transform="translate(12.55 -48.06)"/><path class="cls-1" d="M36,51.1H30.51V65.78h-3V51.1H22V48.47H36Z" transform="translate(12.55 -48.06)"/><path class="cls-1" d="M46.68,65.78H39V48.47h3v6.61h4.62c3.79,0,5.9,1.93,5.9,5.33S50.44,65.78,46.68,65.78Zm-.17-8.22H42.06V63.3h4.5c2,0,3-.95,3-2.82A2.75,2.75,0,0,0,46.51,57.56Z" transform="translate(12.55 -48.06)"/><path class="cls-1" d="M63.74,55.38l7.37,10.4H67.34l-5.69-8.29L59.17,60v5.81h-3V48.47h3v7.85l7.66-7.85h3.84Z" transform="translate(12.55 -48.06)"/><path class="cls-1" d="M89.1,57.13c0,5.39-3.38,9.07-8.31,9.07s-8.32-3.68-8.32-9.07c0-5.08,3.07-9.07,8.37-9.07C85.72,48.06,89.1,51.75,89.1,57.13Zm-13.56-.05c0,4,2,6.56,5.3,6.56S86,61.07,86,57.1s-2-6.49-5.25-6.49S75.54,53.16,75.54,57.08Z" transform="translate(12.55 -48.06)"/><path class="cls-1" d="M100.7,48.47c3.74,0,5.62,1.78,5.62,4.35a3.9,3.9,0,0,1-2.48,3.65,4.09,4.09,0,0,1,3.26,4.21c0,3.06-2.24,5.1-5.48,5.1H92.8V48.47Zm-4.94,7.22H99.9c2.26,0,3.4-.63,3.4-2.38,0-2.16-1.58-2.38-3.3-2.38H95.76Zm0,7.61h4.55c2,0,3.75-.48,3.75-2.7,0-2.38-1.83-2.72-3.8-2.72h-4.5Z" transform="translate(12.55 -48.06)"/><path class="cls-1" d="M126.64,57.13c0,5.39-3.38,9.07-8.31,9.07S110,62.52,110,57.13c0-5.08,3.07-9.07,8.37-9.07C123.26,48.06,126.64,51.75,126.64,57.13Zm-13.56-.05c0,4,2,6.56,5.3,6.56s5.2-2.57,5.2-6.54-2-6.49-5.25-6.49S113.08,53.16,113.08,57.08Z" transform="translate(12.55 -48.06)"/></svg>