<svg width="17" height="17" viewBox="0 0 17 17" fill="none" xmlns="http://www.w3.org/2000/svg">
<path d="M12.946 10.3231C12.6335 9.99925 12.2566 9.82607 11.8572 9.82607C11.461 9.82607 11.0808 9.99604 10.7555 10.3199L9.73756 11.3301C9.65381 11.2852 9.57005 11.2435 9.48952 11.2018C9.37355 11.1441 9.26403 11.0896 9.17061 11.0319C8.21711 10.429 7.35058 9.64328 6.51949 8.62668C6.11683 8.11998 5.84624 7.69345 5.64974 7.26052C5.91389 7.02 6.15871 6.76986 6.39708 6.52933C6.48728 6.43954 6.57747 6.34654 6.66767 6.25674C7.34414 5.58329 7.34414 4.711 6.66767 4.03754L5.78826 3.16205C5.6884 3.06263 5.58531 2.96001 5.48868 2.85739C5.2954 2.65856 5.09246 2.45331 4.88307 2.26089C4.57061 1.95303 4.19694 1.78947 3.80394 1.78947C3.41094 1.78947 3.03083 1.95303 2.7087 2.26089C2.70548 2.2641 2.70548 2.2641 2.70226 2.26731L1.60702 3.36729C1.19469 3.77778 0.959541 4.27806 0.908 4.85852C0.830689 5.79495 1.10772 6.66723 1.32033 7.23807C1.84217 8.6395 2.62173 9.93831 3.78461 11.3301C5.19554 13.0074 6.89316 14.3318 8.83238 15.265C9.57327 15.6146 10.5622 16.0283 11.6671 16.0989C11.7348 16.1021 11.8056 16.1053 11.8701 16.1053C12.6142 16.1053 13.2391 15.8391 13.7287 15.3099C13.732 15.3035 13.7384 15.3003 13.7416 15.2939C13.9091 15.0919 14.1024 14.9091 14.3054 14.7135C14.4439 14.582 14.5856 14.4441 14.7241 14.2998C15.043 13.9694 15.2105 13.5846 15.2105 13.1902C15.2105 12.7925 15.0398 12.4109 14.7145 12.0902L12.946 10.3231ZM14.0992 13.7001C14.096 13.7001 14.096 13.7033 14.0992 13.7001C13.9736 13.8347 13.8447 13.9566 13.7062 14.0913C13.4968 14.2901 13.2842 14.4986 13.0845 14.7327C12.7591 15.079 12.3758 15.2426 11.8733 15.2426C11.825 15.2426 11.7734 15.2426 11.7251 15.2394C10.7684 15.1785 9.8793 14.8065 9.21249 14.489C7.38924 13.6103 5.78826 12.3628 4.45786 10.7817C3.3594 9.46369 2.62495 8.24505 2.13853 6.93662C1.83895 6.13809 1.72943 5.51594 1.77775 4.92907C1.80996 4.55386 1.95492 4.24279 2.22229 3.97661L3.32075 2.88304C3.47859 2.73552 3.6461 2.65535 3.81038 2.65535C4.01332 2.65535 4.17761 2.77721 4.28069 2.87983C4.28391 2.88304 4.28713 2.88625 4.29036 2.88946C4.48685 3.07225 4.67369 3.26146 4.87019 3.4635C4.97005 3.56612 5.07313 3.66874 5.17621 3.77457L6.05562 4.65007C6.39708 4.99 6.39708 5.30428 6.05562 5.64422C5.96221 5.73722 5.87201 5.83022 5.77859 5.92002C5.508 6.19581 5.2503 6.45237 4.97005 6.70251C4.96361 6.70892 4.95716 6.71213 4.95394 6.71854C4.67691 6.99434 4.72845 7.26372 4.78643 7.44652C4.78966 7.45614 4.79288 7.46576 4.7961 7.47538C5.02481 8.02698 5.34694 8.5465 5.83658 9.16544L5.8398 9.16865C6.72887 10.259 7.66627 11.1088 8.7003 11.7599C8.83238 11.8432 8.96767 11.9106 9.09652 11.9747C9.21249 12.0324 9.32201 12.087 9.41543 12.1447C9.42832 12.1511 9.4412 12.1607 9.45409 12.1671C9.56361 12.2217 9.66669 12.2473 9.77299 12.2473C10.0404 12.2473 10.2079 12.0806 10.2626 12.026L11.3643 10.9293C11.4738 10.8202 11.6478 10.6887 11.8507 10.6887C12.0504 10.6887 12.2147 10.8138 12.3146 10.9228C12.3178 10.9261 12.3178 10.9261 12.321 10.9293L14.096 12.6963C14.4278 13.0234 14.4278 13.3601 14.0992 13.7001Z" fill="black" stroke="black" stroke-width="0.5"/>
<path d="M9.2955 4.41806C10.1163 4.55592 10.862 4.94444 11.4573 5.53976C12.0525 6.13508 12.4379 6.8808 12.5789 7.70171C12.6133 7.9085 12.7919 8.05263 12.9956 8.05263C13.0206 8.05263 13.0426 8.0495 13.0676 8.04637C13.2995 8.00877 13.453 7.78944 13.4154 7.55758C13.2462 6.56434 12.7763 5.65883 12.0588 4.94131C11.3413 4.2238 10.4359 3.75381 9.44275 3.58461C9.21091 3.54701 8.99474 3.70054 8.95401 3.92927C8.91328 4.158 9.06366 4.38046 9.2955 4.41806Z" fill="black" stroke="black" stroke-width="0.5"/>
<path d="M16.0987 7.55548C15.8152 5.89193 15.0315 4.37817 13.8273 3.17353C12.6231 1.9689 11.1098 1.18493 9.4469 0.901296C9.21434 0.859867 8.99453 1.01921 8.95311 1.25185C8.91488 1.48768 9.07098 1.70757 9.30673 1.749C10.7913 2.00077 12.1452 2.70506 13.222 3.77904C14.2988 4.8562 14.9996 6.21062 15.2513 7.6957C15.2863 7.90604 15.4679 8.05263 15.675 8.05263C15.7005 8.05263 15.7228 8.04945 15.7483 8.04626C15.9808 8.0112 16.1401 7.78812 16.0987 7.55548Z" fill="black" stroke="black" stroke-width="0.5"/>
</svg>
