<?xml version="1.0" encoding="utf-8"?>
<svg xmlns="http://www.w3.org/2000/svg"
	xmlns:xlink="http://www.w3.org/1999/xlink"
	width="18px" height="10px" viewBox="0 0 18 10">
<path fillRule="evenodd" d="M 15.93-0.02C 15.93-0.02 18 2.14 18 2.14 18 2.14 10.39 9.45 10.39 9.45 10.39 9.45 8.31 7.29 8.31 7.29 8.31 7.29 15.93-0.02 15.93-0.02M 9.69 7.29C 9.69 7.29 7.61 9.45 7.61 9.45 7.61 9.45-0 2.14-0 2.14-0 2.14 2.07-0.02 2.07-0.02 2.07-0.02 9.69 7.29 9.69 7.29M 9 10C 8.5 10 8 9.82 7.61 9.45 7.61 9.45 9 8.01 9 8.01 9 8.01 10.39 9.45 10.39 9.45 10 9.82 9.5 10 9 10 9 10 9 10 9 10ZM 9 8.01C 9 8.01 8.31 7.29 8.31 7.29 8.51 7.1 8.75 7.01 9 7.01 9.25 7.01 9.49 7.1 9.69 7.29 9.69 7.29 9 8.01 9 8.01 9 8.01 9 8.01 9 8.01Z" fill="rgb(121,177,49)"/></svg>